Coordinates
version=1
nRows=32
nColumns=18
inDegrees=yes

Units are S.I. units (second, meters, Newtons, ...)
If the header above contains a line with 'inDegrees', this indicates whether rotational values are in degrees (yes) or radians (no).

endheader
time	ground_thorax_rot_x	ground_thorax_rot_y	ground_thorax_rot_z	ground_thorax_tx	ground_thorax_ty	ground_thorax_tz	clav_prot	clav_elev	scapula_abduction	scapula_elevation	scapula_upward_rot	scapula_winging	plane_elv	shoulder_elv	axial_rot	elbow_flexion	pro_sup
      0.00000000	      0.51728761	     -7.18488561	    -13.25291285	     -0.01572754	     -0.00257178	      0.01871864	    -16.10961503	    -23.44797866	    -14.72803093	    -15.84149061	      4.83501421	     25.54515271	    -26.00000000	     31.46717638	     40.76496642	     24.32327284	   -172.66814106
      0.02000000	      0.51728761	     -7.00830092	    -13.27759998	     -0.01552127	     -0.00270151	      0.01881207	    -16.29774848	    -23.42697049	    -15.02588025	    -15.85136984	      4.89258613	     25.57633065	    -26.00000000	     31.28501629	     41.15877388	     24.29497768	   -172.67186809
      0.04000000	      0.51728761	     -6.81838006	    -13.29771942	     -0.01533612	     -0.00282320	      0.01889746	    -16.47419011	    -23.39972797	    -15.32073088	    -15.84904511	      4.92504801	     25.60348154	    -26.00000000	     31.12254930	     41.31860426	     24.27525966	   -172.63581540
      0.06000000	      0.51728761	     -6.63648239	    -13.30911507	     -0.01521233	     -0.00291415	      0.01897486	    -16.63498127	    -23.38765084	    -15.60202170	    -15.85021079	      4.92837065	     25.64122118	    -26.00000000	     31.00004999	     41.41655322	     24.26294647	   -172.66301898
      0.08000000	      0.51728761	     -6.49565520	    -13.30763838	     -0.01513086	     -0.00301706	      0.01903999	    -16.75459974	    -23.35286331	    -15.80987511	    -15.83443663	      4.94555406	     25.64827402	    -26.00000000	     30.87531131	     41.55047965	     24.25937811	   -172.64139666
      0.10000000	      0.51728761	     -6.35845478	    -13.32339275	     -0.01511608	     -0.00306795	      0.01912911	    -16.87922215	    -23.36041458	    -16.02443881	    -15.84831187	      4.94642896	     25.68881052	    -26.00000000	     30.78548218	     41.61079757	     24.25255976	   -172.63498200
      0.12000000	      0.51728761	     -6.24494502	    -13.31532049	     -0.01519685	     -0.00311307	      0.01919125	    -16.96978853	    -23.34465042	    -16.18381908	    -15.84269961	      4.95151240	     25.70245616	    -26.00000000	     30.69893837	     41.67127333	     24.24687209	   -172.62731261
      0.14000000	      0.51728761	     -6.22823748	    -13.32152532	     -0.01532196	     -0.00314764	      0.01924639	    -16.93518381	    -23.34107899	    -16.14414431	    -15.82933230	      4.91912824	     25.69614973	    -26.00000000	     30.73095035	     41.40220411	     24.31256019	   -172.61739645
      0.16000000	      0.51728761	     -6.07967957	    -13.29119382	     -0.01556840	     -0.00312711	      0.01931949	    -17.09373041	    -23.34873872	    -16.41768716	    -15.84557998	      4.92071662	     25.74553214	    -26.00000000	     30.61629011	     41.76937137	     24.26584585	   -172.63289785
      0.18000000	      0.51728761	     -6.05210542	    -13.26772407	     -0.01586401	     -0.00311228	      0.01937547	    -17.09699627	    -23.34600065	    -16.43226640	    -15.84015152	      4.90739464	     25.74696349	    -26.00000000	     30.60786314	     41.80863274	     24.27821308	   -172.63759604
      0.20000000	      0.51728761	     -6.04667308	    -13.23585047	     -0.01623558	     -0.00308679	      0.01942117	    -17.06892771	    -23.33739543	    -16.39519145	    -15.82754792	      4.89180209	     25.73601889	    -26.00000000	     30.61759852	     41.83130988	     24.29415769	   -172.62017763
      0.22000000	      0.51728761	     -6.02399675	    -13.19520188	     -0.01667329	     -0.00302532	      0.01946412	    -17.05642974	    -23.34363814	    -16.39701590	    -15.82085952	      4.84992783	     25.74450010	    -26.00000000	     30.64992932	     41.80490978	     24.30776362	   -172.61177219
      0.24000000	      0.51728761	     -6.04894745	    -13.18306738	     -0.01708232	     -0.00298158	      0.01952214	    -17.02066401	    -23.35997204	    -16.33288913	    -15.83035037	      4.84504345	     25.74675942	    -26.00000000	     30.67799428	     41.83921843	     24.32115162	   -172.58715591
      0.26000000	      0.51728761	     -6.05113151	    -13.17161545	     -0.01752427	     -0.00292426	      0.01958582	    -17.00243794	    -23.37793899	    -16.29796939	    -15.84261807	      4.84171227	     25.75475709	    -26.00000000	     30.70003413	     41.83486476	     24.33077735	   -172.59635297
      0.28000000	      0.51728761	     -6.07169155	    -13.12795873	     -0.01801501	     -0.00287421	      0.01961255	    -16.94120684	    -23.36625840	    -16.20981162	    -15.82309412	      4.81663472	     25.73387291	    -26.00000000	     30.75054364	     41.87389974	     24.34145373	   -172.58621705
      0.30000000	      0.51728761	     -6.06703648	    -13.11932046	     -0.01845127	     -0.00285335	      0.01969196	    -16.94179946	    -23.36985207	    -16.20533667	    -15.82780803	      4.82379984	     25.73537821	    -26.00000000	     30.75561148	     41.85881392	     24.37605011	   -172.58557350
      0.32000000	      0.51728761	     -6.08188565	    -13.09251551	     -0.01892889	     -0.00279070	      0.01971210	    -16.87145817	    -23.37908440	    -16.10002614	    -15.82221695	      4.79079969	     25.72790582	    -26.00000000	     30.82806074	     41.83659919	     24.36015190	   -172.58747427
      0.34000000	      0.51728761	     -6.06207438	    -13.09361312	     -0.01934261	     -0.00274987	      0.01975646	    -16.86461608	    -23.39665834	    -16.08681502	    -15.83414762	      4.78464152	     25.73934269	    -26.00000000	     30.85443485	     41.82946911	     24.35926932	   -172.59078895
      0.36000000	      0.51728761	     -6.06401386	    -13.08947379	     -0.01973200	     -0.00273270	      0.01979722	    -16.82535682	    -23.38749637	    -16.01430044	    -15.82731843	      4.79565446	     25.71982533	    -26.00000000	     30.86791242	     41.83847845	     24.35656083	   -172.60868728
      0.38000000	      0.51728761	     -6.04267100	    -13.09537157	     -0.02008465	     -0.00271223	      0.01983727	    -16.81149489	    -23.39035810	    -15.98740817	    -15.82958760	      4.79887524	     25.71726244	    -26.00000000	     30.87680717	     41.85083911	     24.34764798	   -172.62435780
      0.40000000	      0.51728761	     -6.01091680	    -13.10520450	     -0.02040996	     -0.00270148	      0.01986523	    -16.80109208	    -23.38903772	    -15.96953863	    -15.82791622	      4.79900022	     25.71336912	    -26.00000000	     30.88187842	     41.84832839	     24.34741123	   -172.63279126
      0.42000000	      0.51728761	     -5.98397209	    -13.12500010	     -0.02069283	     -0.00268661	      0.01991068	    -16.79609864	    -23.39534729	    -15.96198121	    -15.83114717	      4.79335628	     25.71842368	    -26.00000000	     30.88475584	     41.70719271	     24.35441638	   -172.62048709
      0.44000000	      0.51728761	     -5.97428568	    -13.13767237	     -0.02092270	     -0.00268644	      0.01997084	    -16.79157860	    -23.39438320	    -15.95966163	    -15.82803682	      4.78540871	     25.71686166	    -26.00000000	     30.87837922	     41.70058893	     24.37088687	   -172.62121312
      0.46000000	      0.51728761	     -5.87309429	    -13.16587821	     -0.02119079	     -0.00270223	      0.01994264	    -16.83669309	    -23.39192412	    -16.03016121	    -15.83265782	      4.79999029	     25.72535428	    -26.00000000	     30.81722064	     41.76036669	     24.32834691	   -172.63159180
      0.48000000	      0.51728761	     -5.91508228	    -13.25719575	     -0.02130880	     -0.00272455	      0.01995261	    -16.76027584	    -23.44595379	    -15.88877643	    -15.86774004	      4.78810803	     25.74331082	    -26.00000000	     30.88457489	     41.36160317	     24.36045650	   -172.64420476
      0.50000000	      0.51728761	     -5.85612803	    -13.16054354	     -0.02167025	     -0.00274095	      0.01990595	    -16.75275451	    -23.36898398	    -15.93890552	    -15.78847740	      4.72004916	     25.69980274	    -26.00000000	     30.85625864	     41.61953443	     24.35056116	   -172.76106015
      0.52000000	      0.51728761	     -5.85416907	    -13.18320251	     -0.02182911	     -0.00277228	      0.01990260	    -16.74989069	    -23.37144708	    -15.94257968	    -15.78617352	      4.70439151	     25.70376171	    -26.00000000	     30.83766664	     41.60698346	     24.36041899	   -172.76107853
      0.54000000	      0.51728761	     -5.93466626	    -13.34238047	     -0.02174321	     -0.00275135	      0.01998595	    -16.76442902	    -23.52867320	    -15.91505912	    -15.91539436	      4.71769702	     25.81502227	    -26.00000000	     30.86579100	     41.67196263	     24.33224358	   -172.78818707
      0.56000000	      0.51728761	     -5.82991987	    -13.25227852	     -0.02210519	     -0.00282246	      0.01991526	    -16.82664877	    -23.43756190	    -16.07596813	    -15.83549833	      4.67397594	     25.77715595	    -26.00000000	     30.75597218	     41.44362639	     24.26997769	   -172.80444848
      0.58000000	      0.51728761	     -5.75725271	    -13.30519496	     -0.02222410	     -0.00285900	      0.01994845	    -16.96267001	    -23.51909445	    -16.33128118	    -15.89092440	      4.60560229	     25.88490792	    -26.00000000	     30.74544807	     41.20293569	     24.27012707	   -172.59341369
      0.60000000	      0.51728761	     -5.76635300	    -13.30390365	     -0.02239428	     -0.00292357	      0.01992796	    -16.99154342	    -23.54282484	    -16.41955723	    -15.89233809	      4.53160172	     25.92310851	    -26.00000000	     30.78117567	     41.00776263	     24.26527857	   -172.44919973
      0.62000000	      0.51728761	     -5.79837232	    -13.32989262	     -0.02252207	     -0.00296320	      0.01992073	    -17.04032972	    -23.60902497	    -16.52489981	    -15.93119552	      4.46684753	     25.99475252	    -26.00000000	     30.84189951	     40.85567372	     24.23818650	   -172.23457936
